<mxfile host="app.diagrams.net" agent="Mozilla/5.0 (Windows NT 10.0; Win64; x64) AppleWebKit/537.36 (KHTML, like Gecko) Chrome/128.0.0.0 Safari/537.36" border="50" scale="3" compressed="false" locked="false" version="24.7.8">
  <diagram name="Blank" id="YmL12bMKpDGza6XwsDPr">
    <mxGraphModel dx="1834" dy="1184" grid="0" gridSize="10" guides="1" tooltips="1" connect="1" arrows="1" fold="1" page="0" pageScale="1" pageWidth="827" pageHeight="1169" background="none" math="1" shadow="0">
      <root>
        <mxCell id="X5NqExCQtvZxIxQ7pmgY-0" />
        <mxCell id="1" parent="X5NqExCQtvZxIxQ7pmgY-0" />
        <mxCell id="dw8JiAMVcAWiM7rfHlez-38" style="edgeStyle=orthogonalEdgeStyle;rounded=0;orthogonalLoop=1;jettySize=auto;html=1;entryX=0.5;entryY=1;entryDx=0;entryDy=0;" edge="1" parent="1" source="dw8JiAMVcAWiM7rfHlez-1" target="dw8JiAMVcAWiM7rfHlez-28">
          <mxGeometry relative="1" as="geometry" />
        </mxCell>
        <mxCell id="dw8JiAMVcAWiM7rfHlez-39" style="edgeStyle=orthogonalEdgeStyle;rounded=0;orthogonalLoop=1;jettySize=auto;html=1;exitX=0.517;exitY=1.089;exitDx=0;exitDy=0;entryX=0.5;entryY=0;entryDx=0;entryDy=0;exitPerimeter=0;" edge="1" parent="1" source="dw8JiAMVcAWiM7rfHlez-1" target="dw8JiAMVcAWiM7rfHlez-12">
          <mxGeometry relative="1" as="geometry" />
        </mxCell>
        <mxCell id="dw8JiAMVcAWiM7rfHlez-40" style="edgeStyle=orthogonalEdgeStyle;rounded=0;orthogonalLoop=1;jettySize=auto;html=1;exitX=0;exitY=0.5;exitDx=0;exitDy=0;" edge="1" parent="1" source="dw8JiAMVcAWiM7rfHlez-1">
          <mxGeometry relative="1" as="geometry">
            <mxPoint x="488.2413793103449" y="255.55172413793116" as="targetPoint" />
          </mxGeometry>
        </mxCell>
        <mxCell id="dw8JiAMVcAWiM7rfHlez-1" value="&lt;span style=&quot;font-family: &amp;quot;Comic Sans MS&amp;quot;;&quot;&gt;&lt;font style=&quot;font-size: 15px;&quot;&gt;进程的并发执行和动态执行&lt;/font&gt;&lt;/span&gt;" style="ellipse;whiteSpace=wrap;html=1;align=center;container=1;recursiveResize=0;treeFolding=1;strokeWidth=2;" vertex="1" parent="1">
          <mxGeometry x="611" y="216" width="143" height="79" as="geometry" />
        </mxCell>
        <mxCell id="dw8JiAMVcAWiM7rfHlez-18" style="edgeStyle=orthogonalEdgeStyle;rounded=0;orthogonalLoop=1;jettySize=auto;html=1;exitX=0;exitY=1;exitDx=0;exitDy=0;entryX=1;entryY=0.5;entryDx=0;entryDy=0;" edge="1" parent="1" source="dw8JiAMVcAWiM7rfHlez-12" target="dw8JiAMVcAWiM7rfHlez-16">
          <mxGeometry relative="1" as="geometry" />
        </mxCell>
        <mxCell id="dw8JiAMVcAWiM7rfHlez-21" style="edgeStyle=orthogonalEdgeStyle;rounded=0;orthogonalLoop=1;jettySize=auto;html=1;exitX=1;exitY=1;exitDx=0;exitDy=0;entryX=0;entryY=0.5;entryDx=0;entryDy=0;" edge="1" parent="1" source="dw8JiAMVcAWiM7rfHlez-12" target="dw8JiAMVcAWiM7rfHlez-19">
          <mxGeometry relative="1" as="geometry" />
        </mxCell>
        <mxCell id="dw8JiAMVcAWiM7rfHlez-24" style="edgeStyle=orthogonalEdgeStyle;rounded=0;orthogonalLoop=1;jettySize=auto;html=1;exitX=1;exitY=0;exitDx=0;exitDy=0;entryX=0.5;entryY=1;entryDx=0;entryDy=0;" edge="1" parent="1" source="dw8JiAMVcAWiM7rfHlez-12" target="dw8JiAMVcAWiM7rfHlez-22">
          <mxGeometry relative="1" as="geometry" />
        </mxCell>
        <mxCell id="dw8JiAMVcAWiM7rfHlez-12" value="&lt;span style=&quot;font-family: &amp;quot;Comic Sans MS&amp;quot;;&quot;&gt;linux top&lt;/span&gt;" style="ellipse;whiteSpace=wrap;html=1;align=center;container=1;recursiveResize=0;treeFolding=1;strokeWidth=2;" vertex="1" parent="1">
          <mxGeometry x="630" y="408" width="108" height="53" as="geometry" />
        </mxCell>
        <mxCell id="dw8JiAMVcAWiM7rfHlez-13" value="显示系统中进程的动态实时视图" style="rounded=1;whiteSpace=wrap;html=1;" vertex="1" parent="1">
          <mxGeometry x="451" y="359.83" width="100" height="38" as="geometry" />
        </mxCell>
        <mxCell id="dw8JiAMVcAWiM7rfHlez-14" style="edgeStyle=orthogonalEdgeStyle;rounded=0;orthogonalLoop=1;jettySize=auto;html=1;exitX=0;exitY=0;exitDx=0;exitDy=0;entryX=0.461;entryY=0.969;entryDx=0;entryDy=0;entryPerimeter=0;" edge="1" parent="1" source="dw8JiAMVcAWiM7rfHlez-12" target="dw8JiAMVcAWiM7rfHlez-13">
          <mxGeometry relative="1" as="geometry" />
        </mxCell>
        <mxCell id="dw8JiAMVcAWiM7rfHlez-15" value="&lt;b&gt;&lt;font style=&quot;font-size: 15px;&quot;&gt;功能&lt;/font&gt;&lt;/b&gt;" style="edgeLabel;html=1;align=center;verticalAlign=middle;resizable=0;points=[];" vertex="1" connectable="0" parent="dw8JiAMVcAWiM7rfHlez-14">
          <mxGeometry x="-0.1786" y="-3" relative="1" as="geometry">
            <mxPoint as="offset" />
          </mxGeometry>
        </mxCell>
        <mxCell id="dw8JiAMVcAWiM7rfHlez-16" value="显示多个进程同时运行的状态，包括CPU、内存使用率等" style="rounded=1;whiteSpace=wrap;html=1;" vertex="1" parent="1">
          <mxGeometry x="306" y="476.8299999999999" width="206" height="40" as="geometry" />
        </mxCell>
        <mxCell id="dw8JiAMVcAWiM7rfHlez-17" value="&lt;span style=&quot;font-size: 15px;&quot;&gt;&lt;b&gt;并发执行&lt;/b&gt;&lt;/span&gt;" style="edgeLabel;html=1;align=center;verticalAlign=middle;resizable=0;points=[];" vertex="1" connectable="0" parent="1">
          <mxGeometry x="571.0036906093671" y="492.8288718394027" as="geometry">
            <mxPoint x="6" y="-11" as="offset" />
          </mxGeometry>
        </mxCell>
        <mxCell id="dw8JiAMVcAWiM7rfHlez-19" value="实时更新进程信息，显示当前系统负载" style="rounded=1;whiteSpace=wrap;html=1;" vertex="1" parent="1">
          <mxGeometry x="842" y="470" width="192" height="46.83" as="geometry" />
        </mxCell>
        <mxCell id="dw8JiAMVcAWiM7rfHlez-20" value="&lt;b&gt;&lt;font style=&quot;font-size: 15px;&quot;&gt;动态执行&lt;/font&gt;&lt;/b&gt;" style="edgeLabel;html=1;align=center;verticalAlign=middle;resizable=0;points=[];" vertex="1" connectable="0" parent="1">
          <mxGeometry x="971.0036906093671" y="526.8288718394027" as="geometry">
            <mxPoint x="-183" y="-57" as="offset" />
          </mxGeometry>
        </mxCell>
        <mxCell id="dw8JiAMVcAWiM7rfHlez-22" value="包括进程ID、用户、优先级、虚拟内存使用、物理内存使用、CPU使用率等" style="rounded=1;whiteSpace=wrap;html=1;" vertex="1" parent="1">
          <mxGeometry x="804.74" y="355" width="242.26" height="46.83" as="geometry" />
        </mxCell>
        <mxCell id="dw8JiAMVcAWiM7rfHlez-23" value="&lt;b&gt;&lt;font style=&quot;font-size: 15px;&quot;&gt;信息展示&lt;/font&gt;&lt;/b&gt;" style="edgeLabel;html=1;align=center;verticalAlign=middle;resizable=0;points=[];" vertex="1" connectable="0" parent="1">
          <mxGeometry x="801.0036906093671" y="416.8288718394027" as="geometry">
            <mxPoint x="-4" y="6" as="offset" />
          </mxGeometry>
        </mxCell>
        <mxCell id="dw8JiAMVcAWiM7rfHlez-25" style="edgeStyle=orthogonalEdgeStyle;rounded=0;orthogonalLoop=1;jettySize=auto;html=1;exitX=0;exitY=1;exitDx=0;exitDy=0;entryX=1;entryY=0.5;entryDx=0;entryDy=0;" edge="1" parent="1" source="dw8JiAMVcAWiM7rfHlez-28" target="dw8JiAMVcAWiM7rfHlez-32">
          <mxGeometry relative="1" as="geometry" />
        </mxCell>
        <mxCell id="dw8JiAMVcAWiM7rfHlez-26" style="edgeStyle=orthogonalEdgeStyle;rounded=0;orthogonalLoop=1;jettySize=auto;html=1;exitX=1;exitY=1;exitDx=0;exitDy=0;entryX=0;entryY=0.5;entryDx=0;entryDy=0;" edge="1" parent="1" source="dw8JiAMVcAWiM7rfHlez-28" target="dw8JiAMVcAWiM7rfHlez-34">
          <mxGeometry relative="1" as="geometry" />
        </mxCell>
        <mxCell id="dw8JiAMVcAWiM7rfHlez-27" style="edgeStyle=orthogonalEdgeStyle;rounded=0;orthogonalLoop=1;jettySize=auto;html=1;exitX=1;exitY=0;exitDx=0;exitDy=0;entryX=0.5;entryY=1;entryDx=0;entryDy=0;" edge="1" parent="1" source="dw8JiAMVcAWiM7rfHlez-28" target="dw8JiAMVcAWiM7rfHlez-36">
          <mxGeometry relative="1" as="geometry" />
        </mxCell>
        <mxCell id="dw8JiAMVcAWiM7rfHlez-28" value="&lt;span style=&quot;font-family: &amp;quot;Comic Sans MS&amp;quot;;&quot;&gt;windows任务管理器&lt;/span&gt;" style="ellipse;whiteSpace=wrap;html=1;align=center;container=1;recursiveResize=0;treeFolding=1;strokeWidth=2;" vertex="1" parent="1">
          <mxGeometry x="629" y="33" width="108" height="53" as="geometry" />
        </mxCell>
        <mxCell id="dw8JiAMVcAWiM7rfHlez-29" value="&lt;span data-darkreader-inline-color=&quot;&quot; style=&quot;color: rgb(29, 31, 32); font-family: -apple-system, blinkmacsystemfont, &amp;quot;Helvetica Neue&amp;quot;, helvetica, &amp;quot;segoe ui&amp;quot;, arial, roboto, &amp;quot;PingFang SC&amp;quot;, miui, &amp;quot;Hiragino Sans GB&amp;quot;, &amp;quot;Microsoft Yahei&amp;quot;, sans-serif; font-size: 14px; letter-spacing: 0.25px; text-align: left; --darkreader-inline-color: #2e3133;&quot;&gt;提供系统性能的概览，包括进程、性能、应用历史记录、启动程序和用户。&lt;/span&gt;" style="rounded=1;whiteSpace=wrap;html=1;" vertex="1" parent="1">
          <mxGeometry x="292" y="-33" width="254" height="51" as="geometry" />
        </mxCell>
        <mxCell id="dw8JiAMVcAWiM7rfHlez-30" style="edgeStyle=orthogonalEdgeStyle;rounded=0;orthogonalLoop=1;jettySize=auto;html=1;exitX=0;exitY=0;exitDx=0;exitDy=0;entryX=0.461;entryY=0.969;entryDx=0;entryDy=0;entryPerimeter=0;" edge="1" parent="1" source="dw8JiAMVcAWiM7rfHlez-28" target="dw8JiAMVcAWiM7rfHlez-29">
          <mxGeometry relative="1" as="geometry" />
        </mxCell>
        <mxCell id="dw8JiAMVcAWiM7rfHlez-31" value="&lt;b&gt;&lt;font style=&quot;font-size: 15px;&quot;&gt;功能&lt;/font&gt;&lt;/b&gt;" style="edgeLabel;html=1;align=center;verticalAlign=middle;resizable=0;points=[];" vertex="1" connectable="0" parent="dw8JiAMVcAWiM7rfHlez-30">
          <mxGeometry x="-0.1786" y="-3" relative="1" as="geometry">
            <mxPoint as="offset" />
          </mxGeometry>
        </mxCell>
        <mxCell id="dw8JiAMVcAWiM7rfHlez-32" value="&lt;span data-darkreader-inline-color=&quot;&quot; style=&quot;color: rgb(29, 31, 32); font-family: -apple-system, blinkmacsystemfont, &amp;quot;Helvetica Neue&amp;quot;, helvetica, &amp;quot;segoe ui&amp;quot;, arial, roboto, &amp;quot;PingFang SC&amp;quot;, miui, &amp;quot;Hiragino Sans GB&amp;quot;, &amp;quot;Microsoft Yahei&amp;quot;, sans-serif; font-size: 14px; letter-spacing: 0.25px; text-align: left; --darkreader-inline-color: #2e3133;&quot;&gt;显示多个进程的运行状态，包括CPU、内存、磁盘和网络使用情况。&lt;/span&gt;" style="rounded=1;whiteSpace=wrap;html=1;" vertex="1" parent="1">
          <mxGeometry x="282" y="87" width="225" height="50" as="geometry" />
        </mxCell>
        <mxCell id="dw8JiAMVcAWiM7rfHlez-33" value="&lt;span style=&quot;font-size: 15px;&quot;&gt;&lt;b&gt;并发执行&lt;/b&gt;&lt;/span&gt;" style="edgeLabel;html=1;align=center;verticalAlign=middle;resizable=0;points=[];" vertex="1" connectable="0" parent="1">
          <mxGeometry x="566.0036906093671" y="112.99887183940274" as="geometry">
            <mxPoint x="6" y="-11" as="offset" />
          </mxGeometry>
        </mxCell>
        <mxCell id="dw8JiAMVcAWiM7rfHlez-34" value="&lt;span data-darkreader-inline-color=&quot;&quot; style=&quot;color: rgb(29, 31, 32); font-family: -apple-system, blinkmacsystemfont, &amp;quot;Helvetica Neue&amp;quot;, helvetica, &amp;quot;segoe ui&amp;quot;, arial, roboto, &amp;quot;PingFang SC&amp;quot;, miui, &amp;quot;Hiragino Sans GB&amp;quot;, &amp;quot;Microsoft Yahei&amp;quot;, sans-serif; font-size: 14px; letter-spacing: 0.25px; text-align: left; --darkreader-inline-color: #2e3133;&quot;&gt;实时更新系统资源使用情况。&lt;/span&gt;" style="rounded=1;whiteSpace=wrap;html=1;" vertex="1" parent="1">
          <mxGeometry x="826" y="88" width="203" height="49" as="geometry" />
        </mxCell>
        <mxCell id="dw8JiAMVcAWiM7rfHlez-35" value="&lt;b&gt;&lt;font style=&quot;font-size: 15px;&quot;&gt;动态执行&lt;/font&gt;&lt;/b&gt;" style="edgeLabel;html=1;align=center;verticalAlign=middle;resizable=0;points=[];" vertex="1" connectable="0" parent="1">
          <mxGeometry x="966.0036906093671" y="146.99887183940274" as="geometry">
            <mxPoint x="-183" y="-57" as="offset" />
          </mxGeometry>
        </mxCell>
        <mxCell id="dw8JiAMVcAWiM7rfHlez-36" value="&lt;span data-darkreader-inline-color=&quot;&quot; style=&quot;color: rgb(29, 31, 32); font-family: -apple-system, blinkmacsystemfont, &amp;quot;Helvetica Neue&amp;quot;, helvetica, &amp;quot;segoe ui&amp;quot;, arial, roboto, &amp;quot;PingFang SC&amp;quot;, miui, &amp;quot;Hiragino Sans GB&amp;quot;, &amp;quot;Microsoft Yahei&amp;quot;, sans-serif; font-size: 14px; letter-spacing: 0.25px; text-align: left; --darkreader-inline-color: #2e3133;&quot;&gt;包括进程名称、用户、CPU、内存、磁盘和网络使用情况。&lt;/span&gt;" style="rounded=1;whiteSpace=wrap;html=1;" vertex="1" parent="1">
          <mxGeometry x="799.74" y="-24.829999999999984" width="242.26" height="46.83" as="geometry" />
        </mxCell>
        <mxCell id="dw8JiAMVcAWiM7rfHlez-37" value="&lt;b&gt;&lt;font style=&quot;font-size: 15px;&quot;&gt;信息展示&lt;/font&gt;&lt;/b&gt;" style="edgeLabel;html=1;align=center;verticalAlign=middle;resizable=0;points=[];" vertex="1" connectable="0" parent="1">
          <mxGeometry x="796.0036906093671" y="36.99887183940274" as="geometry">
            <mxPoint x="-4" y="6" as="offset" />
          </mxGeometry>
        </mxCell>
        <mxCell id="dw8JiAMVcAWiM7rfHlez-43" style="edgeStyle=orthogonalEdgeStyle;rounded=0;orthogonalLoop=1;jettySize=auto;html=1;exitX=0;exitY=0;exitDx=0;exitDy=0;curved=1;" edge="1" parent="1" source="dw8JiAMVcAWiM7rfHlez-41" target="dw8JiAMVcAWiM7rfHlez-42">
          <mxGeometry relative="1" as="geometry" />
        </mxCell>
        <mxCell id="dw8JiAMVcAWiM7rfHlez-41" value="&lt;font style=&quot;font-size: 20px;&quot;&gt;两者差异性&lt;/font&gt;" style="ellipse;whiteSpace=wrap;html=1;" vertex="1" parent="1">
          <mxGeometry x="368" y="219" width="120" height="80" as="geometry" />
        </mxCell>
        <mxCell id="dw8JiAMVcAWiM7rfHlez-42" value="&lt;ol data-darkreader-inline-color=&quot;&quot; style=&quot;box-sizing: inherit; padding-inline-start: 2em; margin: 0.859em 0px 0px; font-size: 14px; color: rgb(29, 31, 32); font-family: -apple-system, blinkmacsystemfont, &amp;quot;Helvetica Neue&amp;quot;, helvetica, &amp;quot;segoe ui&amp;quot;, arial, roboto, &amp;quot;PingFang SC&amp;quot;, miui, &amp;quot;Hiragino Sans GB&amp;quot;, &amp;quot;Microsoft Yahei&amp;quot;, sans-serif; letter-spacing: 0.5px; text-align: start; --darkreader-inline-color: #2e3133;&quot;&gt;&lt;li style=&quot;box-sizing: inherit; line-height: 24px; letter-spacing: 0.25px;&quot;&gt;&lt;span style=&quot;box-sizing: inherit; font-weight: 700;&quot;&gt;用户界面&lt;/span&gt;：&lt;code data-darkreader-inline-bgcolor=&quot;&quot; data-darkreader-inline-color=&quot;&quot; style=&quot;box-sizing: inherit; max-width: 100%; overflow: auto; text-align: justify; color: var(--darkreader-text--brand-main, #181a1b); background-color: var(--darkreader-bg--color-brand-8, #dcdad7); margin: 0 var(--gap-xs); padding: var(--gap-xs) var(--gap-sm); border-radius: var(--border-radius-xs); white-space-collapse: preserve !important; word-break: break-word !important; --darkreader-inline-color: var(--darkreader-text--darkreader-text--brand-main, #2a2e2f); --darkreader-inline-bgcolor: var(--darkreader-bg--darkreader-bg--color-brand-8, #c2beb9);&quot; class=&quot;inlineCode___uUrJ9&quot;&gt;top&lt;/code&gt;命令在命令行界面中运行，而任务管理器提供了图形用户界面。&lt;/li&gt;&lt;li style=&quot;box-sizing: inherit; line-height: 24px; letter-spacing: 0.25px;&quot;&gt;&lt;span style=&quot;box-sizing: inherit; font-weight: 700;&quot;&gt;信息详细程度&lt;/span&gt;：&lt;code data-darkreader-inline-bgcolor=&quot;&quot; data-darkreader-inline-color=&quot;&quot; style=&quot;box-sizing: inherit; max-width: 100%; overflow: auto; text-align: justify; color: var(--darkreader-text--brand-main, #181a1b); background-color: var(--darkreader-bg--color-brand-8, #dcdad7); margin: 0 var(--gap-xs); padding: var(--gap-xs) var(--gap-sm); border-radius: var(--border-radius-xs); white-space-collapse: preserve !important; word-break: break-word !important; --darkreader-inline-color: var(--darkreader-text--darkreader-text--brand-main, #2a2e2f); --darkreader-inline-bgcolor: var(--darkreader-bg--darkreader-bg--color-brand-8, #c2beb9);&quot; class=&quot;inlineCode___uUrJ9&quot;&gt;top&lt;/code&gt;命令通常更专注于系统性能和进程信息，而任务管理器提供了更广泛的系统信息，包括硬件状态和网络使用。&lt;/li&gt;&lt;li style=&quot;box-sizing: inherit; line-height: 24px; letter-spacing: 0.25px;&quot;&gt;&lt;span style=&quot;box-sizing: inherit; font-weight: 700;&quot;&gt;交互性&lt;/span&gt;：&lt;code data-darkreader-inline-bgcolor=&quot;&quot; data-darkreader-inline-color=&quot;&quot; style=&quot;box-sizing: inherit; max-width: 100%; overflow: auto; text-align: justify; color: var(--darkreader-text--brand-main, #181a1b); background-color: var(--darkreader-bg--color-brand-8, #dcdad7); margin: 0 var(--gap-xs); padding: var(--gap-xs) var(--gap-sm); border-radius: var(--border-radius-xs); white-space-collapse: preserve !important; word-break: break-word !important; --darkreader-inline-color: var(--darkreader-text--darkreader-text--brand-main, #2a2e2f); --darkreader-inline-bgcolor: var(--darkreader-bg--darkreader-bg--color-brand-8, #c2beb9);&quot; class=&quot;inlineCode___uUrJ9&quot;&gt;top&lt;/code&gt;命令可以通过按键交互来改变显示的信息和排序方式，任务管理器则通过鼠标点击进行操作。&lt;/li&gt;&lt;li style=&quot;box-sizing: inherit; line-height: 24px; letter-spacing: 0.25px;&quot;&gt;&lt;span style=&quot;box-sizing: inherit; font-weight: 700;&quot;&gt;系统依赖性&lt;/span&gt;：&lt;code data-darkreader-inline-bgcolor=&quot;&quot; data-darkreader-inline-color=&quot;&quot; style=&quot;box-sizing: inherit; max-width: 100%; overflow: auto; text-align: justify; color: var(--darkreader-text--brand-main, #181a1b); background-color: var(--darkreader-bg--color-brand-8, #dcdad7); margin: 0 var(--gap-xs); padding: var(--gap-xs) var(--gap-sm); border-radius: var(--border-radius-xs); white-space-collapse: preserve !important; word-break: break-word !important; --darkreader-inline-color: var(--darkreader-text--darkreader-text--brand-main, #2a2e2f); --darkreader-inline-bgcolor: var(--darkreader-bg--darkreader-bg--color-brand-8, #c2beb9);&quot; class=&quot;inlineCode___uUrJ9&quot;&gt;top&lt;/code&gt;命令是Linux特有的，而任务管理器是Windows系统的一部分。&lt;/li&gt;&lt;/ol&gt;" style="rounded=1;whiteSpace=wrap;html=1;" vertex="1" parent="1">
          <mxGeometry x="-28" y="156" width="295" height="295" as="geometry" />
        </mxCell>
      </root>
    </mxGraphModel>
  </diagram>
</mxfile>
